<mxfile host="65bd71144e">
    <diagram id="KYyxZ-xG2ykgZYiYD33U" name="Page-1">
        <mxGraphModel dx="532" dy="492" grid="1" gridSize="10" guides="1" tooltips="1" connect="1" arrows="1" fold="1" page="1" pageScale="1" pageWidth="827" pageHeight="1169" math="0" shadow="0">
            <root>
                <mxCell id="0"/>
                <mxCell id="1" parent="0"/>
                <mxCell id="4" style="edgeStyle=none;html=1;exitX=0.5;exitY=1;exitDx=0;exitDy=0;exitPerimeter=0;entryX=0.5;entryY=0;entryDx=0;entryDy=0;" edge="1" parent="1" source="2">
                    <mxGeometry relative="1" as="geometry">
                        <mxPoint x="95" y="120" as="targetPoint"/>
                    </mxGeometry>
                </mxCell>
                <mxCell id="2" value="Start" style="strokeWidth=2;html=1;shape=mxgraph.flowchart.terminator;whiteSpace=wrap;" vertex="1" parent="1">
                    <mxGeometry x="45" y="40" width="100" height="60" as="geometry"/>
                </mxCell>
                <mxCell id="7" style="edgeStyle=none;html=1;exitX=0.5;exitY=1;exitDx=0;exitDy=0;entryX=0.5;entryY=0;entryDx=0;entryDy=0;" edge="1" parent="1" source="5" target="6">
                    <mxGeometry relative="1" as="geometry"/>
                </mxCell>
                <mxCell id="5" value="Get set1.txt, or&lt;br&gt;set2.txt, or&lt;br&gt;set3.txt." style="shape=parallelogram;html=1;strokeWidth=2;perimeter=parallelogramPerimeter;whiteSpace=wrap;rounded=1;arcSize=12;size=0.23;" vertex="1" parent="1">
                    <mxGeometry x="30" y="120" width="130" height="60" as="geometry"/>
                </mxCell>
                <mxCell id="9" style="edgeStyle=none;html=1;exitX=0.5;exitY=1;exitDx=0;exitDy=0;entryX=0.5;entryY=0;entryDx=0;entryDy=0;" edge="1" parent="1" source="6" target="8">
                    <mxGeometry relative="1" as="geometry"/>
                </mxCell>
                <mxCell id="6" value="Get numbers" style="shape=parallelogram;html=1;strokeWidth=2;perimeter=parallelogramPerimeter;whiteSpace=wrap;rounded=1;arcSize=12;size=0.23;" vertex="1" parent="1">
                    <mxGeometry x="30" y="200" width="130" height="60" as="geometry"/>
                </mxCell>
                <mxCell id="11" style="edgeStyle=none;html=1;exitX=0.5;exitY=1;exitDx=0;exitDy=0;entryX=0.5;entryY=0;entryDx=0;entryDy=0;fontFamily=Helvetica;fontSize=12;fontColor=#F0F0F0;" edge="1" parent="1" source="8" target="10">
                    <mxGeometry relative="1" as="geometry"/>
                </mxCell>
                <mxCell id="8" value="Mean =&amp;nbsp;&lt;br&gt;total /&lt;br&gt;numbers.length" style="rounded=1;whiteSpace=wrap;html=1;absoluteArcSize=1;arcSize=14;strokeWidth=2;" vertex="1" parent="1">
                    <mxGeometry x="45" y="280" width="100" height="60" as="geometry"/>
                </mxCell>
                <mxCell id="13" style="edgeStyle=none;html=1;exitX=0.5;exitY=1;exitDx=0;exitDy=0;entryX=0.5;entryY=0;entryDx=0;entryDy=0;fontFamily=Helvetica;fontSize=12;fontColor=#F0F0F0;" edge="1" parent="1" source="10" target="12">
                    <mxGeometry relative="1" as="geometry"/>
                </mxCell>
                <mxCell id="10" value="Median = (&lt;span style=&quot;&quot; id=&quot;docs-internal-guid-e6e73d75-7fff-f290-840b-c45025ba863c&quot;&gt;&lt;span style=&quot;font-variant-numeric: normal; font-variant-east-asian: normal; font-variant-alternates: normal; font-variant-position: normal; vertical-align: baseline;&quot;&gt;&lt;font style=&quot;font-size: 12px;&quot;&gt;sortedNumbers = numbers.slice().sort((a,&lt;br&gt;b) =&amp;gt; a - b))&lt;/font&gt;&lt;/span&gt;&lt;/span&gt;" style="rounded=1;whiteSpace=wrap;html=1;absoluteArcSize=1;arcSize=14;strokeWidth=2;" vertex="1" parent="1">
                    <mxGeometry x="30" y="360" width="130" height="70" as="geometry"/>
                </mxCell>
                <mxCell id="15" style="edgeStyle=orthogonalEdgeStyle;html=1;exitX=1;exitY=0.5;exitDx=0;exitDy=0;entryX=0;entryY=0.5;entryDx=0;entryDy=0;fontFamily=Helvetica;fontSize=12;fontColor=#F0F0F0;rounded=0;" edge="1" parent="1" source="12" target="14">
                    <mxGeometry relative="1" as="geometry">
                        <Array as="points">
                            <mxPoint x="180" y="480"/>
                            <mxPoint x="180" y="150"/>
                        </Array>
                    </mxGeometry>
                </mxCell>
                <mxCell id="12" value="&lt;span id=&quot;docs-internal-guid-0edd4a96-7fff-67f2-9f12-37db63ef8775&quot;&gt;&lt;span style=&quot;font-variant-numeric: normal; font-variant-east-asian: normal; font-variant-alternates: normal; font-variant-position: normal; vertical-align: baseline;&quot;&gt;&lt;font style=&quot;font-size: 12px;&quot;&gt;fileNumbers = sortedNumbers.length&lt;/font&gt;&lt;/span&gt;&lt;/span&gt;" style="rounded=1;whiteSpace=wrap;html=1;absoluteArcSize=1;arcSize=14;strokeWidth=2;fontFamily=Helvetica;fontSize=12;" vertex="1" parent="1">
                    <mxGeometry x="30" y="450" width="130" height="60" as="geometry"/>
                </mxCell>
                <mxCell id="19" style="edgeStyle=orthogonalEdgeStyle;rounded=0;html=1;exitX=0.5;exitY=1;exitDx=0;exitDy=0;entryX=0.5;entryY=0;entryDx=0;entryDy=0;entryPerimeter=0;fontFamily=Helvetica;fontSize=12;fontColor=#F0F0F0;" edge="1" parent="1" source="14" target="17">
                    <mxGeometry relative="1" as="geometry"/>
                </mxCell>
                <mxCell id="14" value="&lt;span id=&quot;docs-internal-guid-f0581986-7fff-2c3d-8901-3218abba9f16&quot;&gt;&lt;font style=&quot;font-size: 12px;&quot;&gt;&lt;span style=&quot;font-variant-numeric: normal; font-variant-east-asian: normal; font-variant-alternates: normal; font-variant-position: normal; vertical-align: baseline;&quot;&gt;mid = &lt;/span&gt;&lt;span style=&quot;font-variant-numeric: normal; font-variant-east-asian: normal; font-variant-alternates: normal; font-variant-position: normal; vertical-align: baseline;&quot;&gt;Math&lt;/span&gt;&lt;span style=&quot;font-variant-numeric: normal; font-variant-east-asian: normal; font-variant-alternates: normal; font-variant-position: normal; vertical-align: baseline;&quot;&gt;.floor&lt;br&gt;(fileNumbers / &lt;/span&gt;&lt;span style=&quot;font-variant-numeric: normal; font-variant-east-asian: normal; font-variant-alternates: normal; font-variant-position: normal; vertical-align: baseline;&quot;&gt;2&lt;/span&gt;&lt;span style=&quot;font-variant-numeric: normal; font-variant-east-asian: normal; font-variant-alternates: normal; font-variant-position: normal; vertical-align: baseline;&quot;&gt;)&lt;/span&gt;&lt;/font&gt;&lt;/span&gt;" style="rounded=1;whiteSpace=wrap;html=1;absoluteArcSize=1;arcSize=14;strokeWidth=2;fontFamily=Helvetica;fontSize=12;" vertex="1" parent="1">
                    <mxGeometry x="235" y="125" width="100" height="50" as="geometry"/>
                </mxCell>
                <mxCell id="22" style="edgeStyle=orthogonalEdgeStyle;rounded=0;html=1;exitX=0.5;exitY=1;exitDx=0;exitDy=0;exitPerimeter=0;entryX=0.5;entryY=0;entryDx=0;entryDy=0;fontFamily=Helvetica;fontSize=12;fontColor=#F0F0F0;" edge="1" parent="1" source="17" target="21">
                    <mxGeometry relative="1" as="geometry"/>
                </mxCell>
                <mxCell id="26" style="edgeStyle=orthogonalEdgeStyle;rounded=0;html=1;exitX=1;exitY=0.5;exitDx=0;exitDy=0;exitPerimeter=0;entryX=0;entryY=0.5;entryDx=0;entryDy=0;fontFamily=Helvetica;fontSize=12;fontColor=#F0F0F0;" edge="1" parent="1" source="17" target="25">
                    <mxGeometry relative="1" as="geometry"/>
                </mxCell>
                <mxCell id="17" value="&lt;span id=&quot;docs-internal-guid-ef8eb8a3-7fff-32c5-b95e-bb67d6a3ff5f&quot;&gt;&lt;font style=&quot;font-size: 12px;&quot;&gt;&lt;span style=&quot;font-variant-numeric: normal; font-variant-east-asian: normal; font-variant-alternates: normal; font-variant-position: normal; vertical-align: baseline;&quot;&gt;if&lt;/span&gt;&lt;span style=&quot;font-variant-numeric: normal; font-variant-east-asian: normal; font-variant-alternates: normal; font-variant-position: normal; vertical-align: baseline;&quot;&gt; &lt;br&gt;(fileNumbers % &lt;/span&gt;&lt;span style=&quot;font-variant-numeric: normal; font-variant-east-asian: normal; font-variant-alternates: normal; font-variant-position: normal; vertical-align: baseline;&quot;&gt;2&lt;/span&gt;&lt;span style=&quot;font-variant-numeric: normal; font-variant-east-asian: normal; font-variant-alternates: normal; font-variant-position: normal; vertical-align: baseline;&quot;&gt; === &lt;/span&gt;&lt;span style=&quot;font-variant-numeric: normal; font-variant-east-asian: normal; font-variant-alternates: normal; font-variant-position: normal; vertical-align: baseline;&quot;&gt;0&lt;/span&gt;&lt;span style=&quot;font-variant-numeric: normal; font-variant-east-asian: normal; font-variant-alternates: normal; font-variant-position: normal; vertical-align: baseline;&quot;&gt;)&lt;/span&gt;&lt;/font&gt;&lt;/span&gt;" style="strokeWidth=2;html=1;shape=mxgraph.flowchart.decision;whiteSpace=wrap;fontFamily=Helvetica;fontSize=12;" vertex="1" parent="1">
                    <mxGeometry x="230" y="190" width="110" height="110" as="geometry"/>
                </mxCell>
                <mxCell id="20" value="Yes" style="text;html=1;strokeColor=none;fillColor=none;align=center;verticalAlign=middle;whiteSpace=wrap;rounded=0;labelBackgroundColor=none;fontFamily=Helvetica;fontSize=12;fontColor=#F0F0F0;" vertex="1" parent="1">
                    <mxGeometry x="280" y="300" width="60" height="30" as="geometry"/>
                </mxCell>
                <mxCell id="27" style="edgeStyle=orthogonalEdgeStyle;rounded=0;html=1;exitX=0;exitY=0.5;exitDx=0;exitDy=0;entryX=0;entryY=0.5;entryDx=0;entryDy=0;entryPerimeter=0;fontFamily=Helvetica;fontSize=12;fontColor=#F0F0F0;" edge="1" parent="1" source="21" target="17">
                    <mxGeometry relative="1" as="geometry">
                        <Array as="points">
                            <mxPoint x="200" y="370"/>
                            <mxPoint x="200" y="245"/>
                        </Array>
                    </mxGeometry>
                </mxCell>
                <mxCell id="21" value="&lt;span id=&quot;docs-internal-guid-1eb5f511-7fff-08f9-f479-226f98316cc0&quot; style=&quot;&quot;&gt;&lt;font style=&quot;font-size: 12px;&quot;&gt;&lt;span style=&quot;font-variant: normal; text-decoration: none; vertical-align: baseline;&quot;&gt;return&lt;/span&gt;&lt;span style=&quot;font-variant: normal; text-decoration: none; vertical-align: baseline;&quot;&gt; (sortedNumbers&lt;br&gt;[mid - &lt;/span&gt;&lt;span style=&quot;font-variant: normal; text-decoration: none; vertical-align: baseline;&quot;&gt;1&lt;/span&gt;&lt;span style=&quot;font-variant: normal; text-decoration: none; vertical-align: baseline;&quot;&gt;] + sortedNumbers&lt;br&gt;[mid]) /&amp;nbsp;&lt;/span&gt;&lt;span style=&quot;font-variant: normal; text-decoration: none; vertical-align: baseline;&quot;&gt;2&lt;/span&gt;&lt;/font&gt;&lt;/span&gt;" style="rounded=1;whiteSpace=wrap;html=1;absoluteArcSize=1;arcSize=14;strokeWidth=2;fontFamily=Helvetica;fontSize=12;" vertex="1" parent="1">
                    <mxGeometry x="232.5" y="330" width="105" height="80" as="geometry"/>
                </mxCell>
                <mxCell id="23" value="Else" style="text;html=1;strokeColor=none;fillColor=none;align=center;verticalAlign=middle;whiteSpace=wrap;rounded=0;labelBackgroundColor=none;fontFamily=Helvetica;fontSize=12;fontColor=#F0F0F0;" vertex="1" parent="1">
                    <mxGeometry x="335" y="210" width="60" height="30" as="geometry"/>
                </mxCell>
                <mxCell id="29" style="edgeStyle=orthogonalEdgeStyle;rounded=0;html=1;exitX=0.5;exitY=1;exitDx=0;exitDy=0;entryX=0.5;entryY=0;entryDx=0;entryDy=0;fontFamily=Helvetica;fontSize=12;fontColor=#F0F0F0;" edge="1" parent="1" source="25" target="28">
                    <mxGeometry relative="1" as="geometry"/>
                </mxCell>
                <mxCell id="25" value="&lt;span id=&quot;docs-internal-guid-05b44359-7fff-4fd2-3cac-e67ef8edd21c&quot;&gt;&lt;font style=&quot;font-size: 12px;&quot;&gt;&lt;span style=&quot;font-variant-numeric: normal; font-variant-east-asian: normal; font-variant-alternates: normal; font-variant-position: normal; vertical-align: baseline;&quot;&gt;return&lt;/span&gt;&lt;span style=&quot;font-variant-numeric: normal; font-variant-east-asian: normal; font-variant-alternates: normal; font-variant-position: normal; vertical-align: baseline;&quot;&gt; sortedNumbers[mid]&lt;/span&gt;&lt;/font&gt;&lt;/span&gt;" style="rounded=1;whiteSpace=wrap;html=1;absoluteArcSize=1;arcSize=14;strokeWidth=2;fontFamily=Helvetica;fontSize=12;" vertex="1" parent="1">
                    <mxGeometry x="400" y="222.5" width="120" height="45" as="geometry"/>
                </mxCell>
                <mxCell id="31" style="edgeStyle=orthogonalEdgeStyle;rounded=0;html=1;exitX=0.5;exitY=1;exitDx=0;exitDy=0;entryX=0.5;entryY=0;entryDx=0;entryDy=0;fontFamily=Helvetica;fontSize=12;fontColor=#F0F0F0;" edge="1" parent="1" source="28" target="30">
                    <mxGeometry relative="1" as="geometry"/>
                </mxCell>
                <mxCell id="28" value="Print&lt;br&gt;('Mean:', mean)" style="shape=parallelogram;html=1;strokeWidth=2;perimeter=parallelogramPerimeter;whiteSpace=wrap;rounded=1;arcSize=12;size=0.23;" vertex="1" parent="1">
                    <mxGeometry x="395" y="290" width="130" height="60" as="geometry"/>
                </mxCell>
                <mxCell id="33" style="edgeStyle=orthogonalEdgeStyle;rounded=0;html=1;exitX=0.5;exitY=1;exitDx=0;exitDy=0;entryX=0.5;entryY=0;entryDx=0;entryDy=0;entryPerimeter=0;fontFamily=Helvetica;fontSize=12;fontColor=#F0F0F0;" edge="1" parent="1" source="30" target="32">
                    <mxGeometry relative="1" as="geometry"/>
                </mxCell>
                <mxCell id="30" value="Print&lt;br&gt;('Median:', median)" style="shape=parallelogram;html=1;strokeWidth=2;perimeter=parallelogramPerimeter;whiteSpace=wrap;rounded=1;arcSize=12;size=0.23;" vertex="1" parent="1">
                    <mxGeometry x="382.5" y="370" width="155" height="60" as="geometry"/>
                </mxCell>
                <mxCell id="32" value="Stop" style="strokeWidth=2;html=1;shape=mxgraph.flowchart.terminator;whiteSpace=wrap;" vertex="1" parent="1">
                    <mxGeometry x="410" y="450" width="100" height="60" as="geometry"/>
                </mxCell>
            </root>
        </mxGraphModel>
    </diagram>
</mxfile>